<svg width="24" height="20" viewBox="0 0 24 20" fill="none" xmlns="http://www.w3.org/2000/svg">
<path d="M9.82495 0H3.24995C2.5607 0 2.00195 0.558749 2.00195 1.248V5.355C2.00195 6.04425 2.5607 6.603 3.24995 6.603H9.82495C10.5142 6.603 11.073 6.04425 11.073 5.355V1.248C11.073 0.558749 10.5142 0 9.82495 0Z" fill="white"/>
<path d="M20.7429 0H14.1679C13.4787 0 12.9199 0.558749 12.9199 1.248V10.302C12.9199 10.9913 13.4787 11.55 14.1679 11.55H20.7429C21.4322 11.55 21.9909 10.9913 21.9909 10.302V1.248C21.9909 0.558749 21.4322 0 20.7429 0Z" fill="white"/>
<path d="M20.7507 13.3965H14.1757C13.4865 13.3965 12.9277 13.9552 12.9277 14.6445V18.7515C12.9277 19.4407 13.4865 19.9995 14.1757 19.9995H20.7507C21.44 19.9995 21.9987 19.4407 21.9987 18.7515V14.6445C21.9987 13.9552 21.44 13.3965 20.7507 13.3965Z" fill="white"/>
<path d="M9.83277 8.44922H3.25777C2.56851 8.44922 2.00977 9.00797 2.00977 9.69722V18.7512C2.00977 19.4405 2.56851 19.9992 3.25777 19.9992H9.83277C10.522 19.9992 11.0808 19.4405 11.0808 18.7512V9.69722C11.0808 9.00797 10.522 8.44922 9.83277 8.44922Z" fill="white"/>
</svg>
