<svg width="24" height="20" viewBox="0 0 24 20" fill="none" xmlns="http://www.w3.org/2000/svg">
<g clip-path="url(#clip0_2_1467)">
<path d="M13.5757 11.634H5.26069V2.658H18.8387V4.729H21.4937V1.666C21.4937 1.22415 21.3182 0.800396 21.0057 0.48796C20.6933 0.175525 20.2695 0 19.8277 0H4.26869C3.82684 0 3.40308 0.175525 3.09065 0.48796C2.77821 0.800396 2.60269 1.22415 2.60269 1.666V11.632H1.69469C1.25955 11.6325 0.842413 11.8058 0.534911 12.1136C0.227409 12.4215 0.0546872 12.8389 0.0546875 13.274L0.0546875 14.635C0.0552168 15.0698 0.228172 15.4866 0.535617 15.7941C0.843062 16.1015 1.25989 16.2745 1.69469 16.275H13.5757V11.634Z" fill="white"/>
<path d="M16.954 20.0002H22.273C22.7148 20.0002 23.1386 19.8247 23.451 19.5123C23.7634 19.1998 23.939 18.7761 23.939 18.3342V8.11424C23.939 7.67239 23.7634 7.24864 23.451 6.9362C23.1386 6.62377 22.7148 6.44824 22.273 6.44824H16.959C16.5171 6.44824 16.0934 6.62377 15.7809 6.9362C15.4685 7.24864 15.293 7.67239 15.293 8.11424V18.3262C15.293 18.7681 15.4685 19.1918 15.7809 19.5043C16.0934 19.8167 16.5171 19.9922 16.959 19.9922M17.954 9.10024H21.293V17.3362H17.953L17.954 9.10024Z" fill="white"/>
</g>
<defs>
<clipPath id="clip0_2_1467">
<rect width="24" height="20" fill="white"/>
</clipPath>
</defs>
</svg>
