<svg width="30" height="25" viewBox="0 0 30 25" fill="none" xmlns="http://www.w3.org/2000/svg">
<g clip-path="url(#clip0_2_1535)">
<path d="M8.04902 13.66H3.75502C3.06577 13.66 2.50702 14.2188 2.50702 14.908V23.75C2.50702 24.4393 3.06577 24.998 3.75502 24.998H8.04902C8.73827 24.998 9.29702 24.4393 9.29702 23.75V14.908C9.29702 14.2188 8.73827 13.66 8.04902 13.66Z" fill="#182129"/>
<path d="M17.146 0H12.852C12.1628 0 11.604 0.558749 11.604 1.248V23.752C11.604 24.4413 12.1628 25 12.852 25H17.146C17.8353 25 18.394 24.4413 18.394 23.752V1.248C18.394 0.558749 17.8353 0 17.146 0Z" fill="#CCE6E6"/>
<path d="M26.247 7.47299H21.953C21.2638 7.47299 20.705 8.03174 20.705 8.72099V23.752C20.705 24.4412 21.2638 25 21.953 25H26.247C26.9363 25 27.495 24.4412 27.495 23.752V8.72099C27.495 8.03174 26.9363 7.47299 26.247 7.47299Z" fill="#339999"/>
</g>
<defs>
<clipPath id="clip0_2_1535">
<rect width="30" height="25" fill="white"/>
</clipPath>
</defs>
</svg>
