<svg width="73" height="67" viewBox="0 0 73 67" fill="none" xmlns="http://www.w3.org/2000/svg">
<g clip-path="url(#clip0_107_2538)">
<path d="M56.7387 23.6489C56.0696 23.4204 55.3957 23.2075 54.7169 23.0103C54.8295 22.5523 54.9333 22.0917 55.0284 21.6285C56.5594 14.1826 55.5584 8.18397 52.1416 6.20931C48.8701 4.31446 43.5049 6.28913 38.0926 11.0105C37.5604 11.4764 37.0391 11.9562 36.5288 12.45C36.1886 12.122 35.8396 11.8009 35.4819 11.4869C29.8092 6.43831 24.1233 4.31184 20.7105 6.29306C17.439 8.19183 16.4667 13.8306 17.8447 20.8878C17.9825 21.5857 18.1374 22.2806 18.3092 22.9724C17.5045 23.2014 16.7271 23.4461 15.9839 23.7052C9.34145 26.028 5.09375 29.6698 5.09375 33.4464C5.09375 37.3486 9.65289 41.2613 16.5793 43.6338C17.1411 43.8248 17.7082 44.0024 18.2804 44.1664C18.0946 44.907 17.9302 45.656 17.7871 46.4132C16.4785 53.3488 17.4992 58.854 20.7642 60.741C24.1364 62.6895 29.7935 60.6874 35.3079 55.8587C35.7441 55.4766 36.1803 55.0731 36.6165 54.6482C37.1678 55.1812 37.7349 55.6986 38.3176 56.2002C43.6567 60.8038 48.929 62.6633 52.1887 60.7711C55.5584 58.8161 56.6537 52.9012 55.2312 45.7053C55.1222 45.1557 54.9965 44.5947 54.8543 44.0224C55.2522 43.9047 55.6417 43.783 56.0229 43.6573C63.2202 41.2665 67.9089 37.4009 67.9089 33.4503C67.9062 29.6554 63.5225 25.99 56.7387 23.6489ZM39.8579 13.0389C44.4942 8.99399 48.8283 7.39751 50.8042 8.5386C52.9071 9.75429 53.725 14.6563 52.4033 21.0854C52.3161 21.5042 52.2219 21.9216 52.1207 22.3377C49.3538 21.7084 46.5481 21.2642 43.7221 21.0082C42.1041 18.6774 40.3304 16.4587 38.4132 14.3671C38.8825 13.9117 39.3632 13.4689 39.8552 13.0389H39.8579ZM23.6404 36.6734C24.2084 37.7726 24.802 38.8583 25.4214 39.9305C26.0522 41.0244 26.7095 42.1023 27.3935 43.164C25.449 42.9526 23.5167 42.6412 21.6043 42.231C22.1591 40.4356 22.8422 38.5708 23.6404 36.6734ZM23.6404 30.3489C22.8553 28.492 22.1905 26.6652 21.6448 24.9013C23.4376 24.4995 25.3482 24.1711 27.3398 23.9224C26.6725 24.9641 26.0304 26.021 25.4136 27.0932C24.7968 28.1653 24.2045 29.2506 23.6365 30.3489H23.6404ZM25.0668 33.5118C25.8938 31.7871 26.7846 30.0955 27.739 28.4371C28.6925 26.7795 29.7075 25.1599 30.7841 23.5783C32.6527 23.4369 34.5685 23.3624 36.5039 23.3624C38.4393 23.3624 40.3669 23.4369 42.2343 23.5796C43.2995 25.1577 44.3084 26.7717 45.261 28.4214C46.2137 30.0711 47.1162 31.7548 47.9685 33.4725C47.1275 35.2034 46.2272 36.9019 45.2676 38.5682C44.3158 40.2258 43.3125 41.8502 42.2578 43.4414C40.3931 43.5723 38.4629 43.6442 36.5 43.6442C34.5371 43.6442 32.6436 43.5827 30.8129 43.4637C29.7285 41.8768 28.7051 40.2502 27.7429 38.5839C26.7806 36.9176 25.8873 35.2269 25.0629 33.5118H25.0668ZM47.5903 39.9121C48.2228 38.8147 48.83 37.7028 49.4119 36.5765C50.2096 38.3851 50.9136 40.2336 51.5213 42.1145C49.5864 42.5502 47.63 42.8844 45.6602 43.1156C46.3249 42.0609 46.9683 40.993 47.5903 39.9121ZM49.3857 30.3502C48.8065 29.2467 48.2041 28.1562 47.5786 27.0788C46.9679 26.0162 46.3315 24.9667 45.6693 23.9303C47.6728 24.1841 49.5951 24.5218 51.397 24.934C50.8177 26.7719 50.1464 28.5796 49.3857 30.3502ZM36.5301 16.2894C37.8368 17.7172 39.0706 19.21 40.2269 20.7622C37.7536 20.6444 35.2786 20.6444 32.8019 20.7622C34.0228 19.1474 35.2725 17.649 36.5301 16.2894ZM22.061 8.61843C24.1626 7.39882 28.8094 9.14186 33.7075 13.4956C34.0202 13.7743 34.3356 14.0661 34.6496 14.3684C32.7226 16.4597 30.9363 18.6765 29.3027 21.0043C26.483 21.2583 23.6829 21.6954 20.9199 22.3129C20.7602 21.6708 20.6163 21.0243 20.488 20.3735C19.3038 14.3239 20.0876 9.76345 22.061 8.61843ZM18.9976 41.5754C18.4741 41.4262 17.9572 41.2644 17.4469 41.0899C14.3848 40.043 11.8553 38.6768 10.1188 37.189C8.56414 35.8555 7.77637 34.5247 7.77637 33.4464C7.77637 31.155 11.1866 28.2316 16.8737 26.2491C17.5882 26.0005 18.3088 25.7732 19.0355 25.5673C19.8801 28.2817 20.9031 30.9374 22.0976 33.517C20.8888 36.1323 19.8532 38.8242 18.9976 41.5754ZM33.54 53.833C31.1021 55.9686 28.6602 57.4826 26.5076 58.2455C24.5735 58.9299 23.0333 58.9496 22.1029 58.4117C20.1216 57.2667 19.2972 52.845 20.4213 46.9144C20.5548 46.2165 20.7075 45.5186 20.8793 44.8207C23.6699 45.4218 26.4982 45.8323 29.3446 46.0494C30.9942 48.3893 32.7951 50.6187 34.736 52.7233C34.3461 53.1067 33.9469 53.4757 33.54 53.833ZM36.6047 50.7944C35.3327 49.4191 34.0634 47.8972 32.8255 46.2614C34.0285 46.3085 35.2533 46.3321 36.5 46.3321C37.7798 46.3321 39.0465 46.3046 40.2949 46.2484C39.1429 47.8254 37.9112 49.3427 36.6047 50.7944ZM52.8993 54.5357C52.525 56.5561 51.7726 57.904 50.8422 58.4431C48.8623 59.5921 44.629 58.099 40.0646 54.1614C39.5412 53.7113 39.0177 53.2284 38.4851 52.722C40.3882 50.6092 42.147 48.3708 43.7496 46.022C46.6117 45.7795 49.4538 45.34 52.2555 44.7068C52.3837 45.225 52.4971 45.7328 52.5957 46.23C53.2251 49.4099 53.3154 52.2862 52.8993 54.5357ZM55.1763 41.1043C54.8334 41.2181 54.4801 41.328 54.1215 41.4353C53.243 38.7082 52.1802 36.0438 50.9403 33.4608C52.1337 30.9122 53.1549 28.2865 53.9972 25.6014C54.6397 25.7885 55.2639 25.9848 55.8646 26.1928C61.6773 28.1976 65.2236 31.1655 65.2236 33.4464C65.2236 35.8804 61.3934 39.0393 55.1763 41.1043Z" fill="white"/>
<path d="M36.5 39.0681C37.6137 39.0717 38.7034 38.7448 39.6311 38.1287C40.5589 37.5126 41.283 36.6351 41.7117 35.6072C42.1404 34.5793 42.2544 33.4474 42.0394 32.3546C41.8243 31.2619 41.2899 30.2576 40.5037 29.4688C39.7175 28.68 38.7149 28.1423 37.6228 27.9237C36.5308 27.7051 35.3985 27.8154 34.3692 28.2408C33.34 28.6661 32.4601 29.3873 31.841 30.3131C31.2219 31.2388 30.8914 32.3274 30.8914 33.4411C30.8898 34.179 31.0337 34.9099 31.3148 35.5921C31.5959 36.2743 32.0087 36.8944 32.5295 37.417C33.0504 37.9395 33.6692 38.3543 34.3505 38.6377C35.0317 38.921 35.7622 39.0672 36.5 39.0681Z" fill="white"/>
</g>
<defs>
<clipPath id="clip0_107_2538">
<rect width="72.141" height="67" fill="white"/>
</clipPath>
</defs>
</svg>
