<svg width="24" height="20" viewBox="0 0 24 20" fill="none" xmlns="http://www.w3.org/2000/svg">
<path d="M6.18986 10.9268H3.25386C2.56461 10.9268 2.00586 11.4855 2.00586 12.1748V18.7498C2.00586 19.439 2.56461 19.9978 3.25386 19.9978H6.18986C6.87911 19.9978 7.43786 19.439 7.43786 18.7498V12.1748C7.43786 11.4855 6.87911 10.9268 6.18986 10.9268Z" fill="white"/>
<path d="M13.4672 0H10.5312C9.84195 0 9.2832 0.558749 9.2832 1.248V18.752C9.2832 19.4413 9.84195 20 10.5312 20H13.4672C14.1565 20 14.7152 19.4413 14.7152 18.752V1.248C14.7152 0.558749 14.1565 0 13.4672 0Z" fill="white"/>
<path d="M20.7485 5.97852H17.8125C17.1232 5.97852 16.5645 6.53726 16.5645 7.22652V18.7515C16.5645 19.4408 17.1232 19.9995 17.8125 19.9995H20.7485C21.4377 19.9995 21.9965 19.4408 21.9965 18.7515V7.22652C21.9965 6.53726 21.4377 5.97852 20.7485 5.97852Z" fill="white"/>
</svg>
