<svg width="393" height="227" viewBox="0 0 393 227" fill="none" xmlns="http://www.w3.org/2000/svg">
<mask id="mask0_2_1242" style="mask-type:luminance" maskUnits="userSpaceOnUse" x="0" y="0" width="394" height="227">
<path d="M393.005 0H0V226.114H393.005V0Z" fill="white"/>
</mask>
<g mask="url(#mask0_2_1242)">
<path d="M349.347 202.531V11.5006C349.344 8.71605 348.237 6.04634 346.268 4.07724C344.299 2.10815 341.629 1.0005 338.845 0.997324H49.6576C46.8726 0.999443 44.2023 2.10672 42.233 4.07601C40.2637 6.04531 39.1564 8.71564 39.1543 11.5006V202.531H349.347Z" fill="white"/>
<path d="M350.345 203.527H38.159V11.4976C38.1669 8.45088 39.3807 5.53116 41.535 3.37668C43.6893 1.2222 46.6089 0.00818561 49.6556 0H338.847C341.895 0.00659938 344.816 1.21974 346.971 3.37415C349.127 5.52856 350.342 8.44892 350.351 11.4966L350.345 203.527ZM40.1526 201.534H348.35V11.4976C348.342 8.97963 347.339 6.56695 345.558 4.78645C343.778 3.00594 341.365 2.00228 338.847 1.99463H49.6566C47.1385 2.00176 44.7255 3.00525 42.9449 4.78587C41.1643 6.56648 40.1608 8.97947 40.1536 11.4976L40.1526 201.534Z" fill="#D7D7D7"/>
<path d="M340.152 36.4385H48.0391V145.403H340.152V36.4385Z" fill="#EFEFEF"/>
<path d="M143.131 160.358H244.748C245.144 160.359 245.524 160.517 245.804 160.797C246.084 161.077 246.242 161.457 246.244 161.853V166.699C246.242 167.095 246.084 167.474 245.804 167.755C245.524 168.035 245.144 168.193 244.748 168.194H143.131C142.735 168.193 142.355 168.035 142.075 167.755C141.795 167.474 141.637 167.095 141.636 166.699V161.853C141.637 161.457 141.795 161.077 142.075 160.797C142.355 160.517 142.735 160.359 143.131 160.358Z" fill="#D7D7D7"/>
<path d="M143.28 116.555H244.902C245.298 116.556 245.678 116.714 245.958 116.994C246.238 117.274 246.396 117.654 246.398 118.05V122.896C246.396 123.292 246.238 123.672 245.958 123.952C245.678 124.232 245.298 124.39 244.902 124.391H143.28C142.884 124.39 142.504 124.232 142.224 123.952C141.944 123.672 141.786 123.292 141.785 122.896V118.046C141.786 117.65 141.944 117.27 142.224 116.99C142.504 116.71 142.884 116.552 143.28 116.551" fill="#D7D7D7"/>
<path d="M220.888 100.512L203.751 77.0933C203.625 76.9203 203.459 76.7796 203.268 76.6825C203.077 76.5855 202.865 76.535 202.651 76.535C202.437 76.535 202.225 76.5855 202.034 76.6825C201.843 76.7796 201.677 76.9203 201.551 77.0933L197.103 83.1692C196.977 83.3422 196.811 83.483 196.62 83.58C196.429 83.677 196.217 83.7276 196.003 83.7276C195.788 83.7276 195.577 83.677 195.386 83.58C195.195 83.483 195.029 83.3422 194.902 83.1692L184.914 69.5209C184.788 69.3477 184.622 69.2068 184.431 69.1097C184.24 69.0125 184.028 68.9619 183.814 68.9619C183.6 68.9619 183.388 69.0125 183.197 69.1097C183.006 69.2068 182.84 69.3477 182.714 69.5209L160.032 100.512C159.884 100.715 159.794 100.955 159.774 101.206C159.753 101.457 159.803 101.709 159.917 101.934C160.031 102.158 160.205 102.347 160.419 102.479C160.634 102.611 160.881 102.68 161.133 102.68H219.786C220.038 102.68 220.285 102.611 220.5 102.479C220.714 102.347 220.888 102.158 221.002 101.934C221.116 101.709 221.166 101.457 221.145 101.206C221.125 100.955 221.035 100.715 220.887 100.512" fill="#D7D7D7"/>
<path d="M198.877 57.4492C200.084 57.4492 201.263 57.807 202.267 58.4775C203.27 59.148 204.052 60.101 204.514 61.216C204.976 62.331 205.097 63.5578 204.861 64.7415C204.626 65.9252 204.045 67.0124 203.191 67.8658C202.338 68.7192 201.251 69.3003 200.067 69.5358C198.884 69.7712 197.657 69.6504 196.542 69.1885C195.427 68.7267 194.474 67.9446 193.803 66.9411C193.133 65.9377 192.775 64.7579 192.775 63.5511C192.775 61.9327 193.418 60.3807 194.562 59.2364C195.706 58.092 197.258 57.4492 198.877 57.4492Z" fill="#D7D7D7"/>
<path d="M60.227 21.3998C60.8154 21.3998 61.3906 21.5742 61.8798 21.9011C62.369 22.228 62.7503 22.6926 62.9755 23.2362C63.2007 23.7798 63.2596 24.378 63.1448 24.9551C63.03 25.5322 62.7467 26.0622 62.3306 26.4783C61.9146 26.8943 61.3845 27.1777 60.8074 27.2925C60.2303 27.4073 59.6321 27.3483 59.0886 27.1232C58.545 26.898 58.0803 26.5167 57.7534 26.0275C57.4265 25.5383 57.2521 24.9631 57.2521 24.3747C57.2521 23.5857 57.5655 22.829 58.1234 22.2711C58.6813 21.7132 59.438 21.3998 60.227 21.3998Z" fill="#D7D7D7"/>
<path d="M68.8257 21.3998C69.4141 21.4 69.9891 21.5746 70.4782 21.9016C70.9673 22.2286 71.3485 22.6933 71.5735 23.2369C71.7985 23.7805 71.8573 24.3787 71.7424 24.9557C71.6275 25.5327 71.3441 26.0627 70.928 26.4786C70.5119 26.8946 69.9818 27.1778 69.4047 27.2925C68.8277 27.4073 68.2296 27.3483 67.686 27.1231C67.1425 26.8979 66.6779 26.5166 66.3511 26.0274C66.0242 25.5382 65.8498 24.963 65.8498 24.3747C65.8498 23.9839 65.9268 23.597 66.0763 23.236C66.2259 22.875 66.4451 22.547 66.7215 22.2707C66.9978 21.9945 67.3259 21.7754 67.687 21.6259C68.048 21.4765 68.435 21.3996 68.8257 21.3998Z" fill="#D7D7D7"/>
<path d="M77.4234 21.3998C78.0118 21.3998 78.587 21.5742 79.0762 21.9011C79.5654 22.228 79.9467 22.6926 80.1719 23.2362C80.3971 23.7798 80.456 24.378 80.3412 24.9551C80.2264 25.5322 79.9431 26.0622 79.527 26.4783C79.111 26.8943 78.5809 27.1777 78.0038 27.2925C77.4267 27.4073 76.8286 27.3483 76.285 27.1232C75.7414 26.898 75.2767 26.5167 74.9498 26.0275C74.6229 25.5383 74.4485 24.9631 74.4485 24.3747C74.4485 23.5857 74.7619 22.829 75.3198 22.2711C75.8777 21.7132 76.6344 21.3998 77.4234 21.3998Z" fill="#D7D7D7"/>
<path d="M147.096 178.361H73.1631V204.04H147.096V178.361Z" fill="#EFEFEF"/>
<path d="M118.377 202.762L116.593 200.324C116.519 200.221 116.421 200.137 116.308 200.079C116.195 200.021 116.07 199.99 115.943 199.99C115.815 199.99 115.69 200.021 115.577 200.079C115.464 200.137 115.366 200.221 115.292 200.324L113.416 202.888C113.342 202.991 113.244 203.075 113.131 203.133C113.018 203.191 112.893 203.222 112.766 203.222C112.638 203.222 112.513 203.191 112.4 203.133C112.287 203.075 112.189 202.991 112.115 202.888L107.594 196.709C107.52 196.606 107.422 196.522 107.309 196.464C107.196 196.406 107.071 196.375 106.944 196.375C106.817 196.375 106.691 196.406 106.578 196.464C106.465 196.522 106.368 196.606 106.294 196.709L101.865 202.761C101.776 202.88 101.722 203.023 101.709 203.171C101.696 203.32 101.725 203.469 101.792 203.602C101.86 203.735 101.963 203.847 102.091 203.924C102.218 204.002 102.365 204.042 102.514 204.04H117.719C117.868 204.042 118.015 204.002 118.143 203.924C118.27 203.847 118.374 203.735 118.441 203.602C118.509 203.469 118.538 203.32 118.525 203.171C118.512 203.023 118.458 202.88 118.368 202.761" fill="#D7D7D7"/>
<path d="M114.146 190.782C114.722 190.782 115.285 190.953 115.764 191.273C116.243 191.593 116.617 192.048 116.837 192.58C117.058 193.113 117.115 193.698 117.003 194.263C116.891 194.828 116.613 195.347 116.206 195.755C115.798 196.162 115.279 196.44 114.714 196.552C114.149 196.664 113.564 196.607 113.031 196.386C112.499 196.166 112.044 195.792 111.724 195.313C111.404 194.834 111.233 194.271 111.233 193.695C111.233 192.923 111.54 192.182 112.086 191.635C112.633 191.089 113.373 190.782 114.146 190.782Z" fill="#D7D7D7"/>
<path d="M315.358 178.361H241.424V204.04H315.358V178.361Z" fill="#EFEFEF"/>
<path d="M286.64 202.762L284.856 200.324C284.782 200.221 284.684 200.137 284.571 200.079C284.458 200.021 284.333 199.99 284.206 199.99C284.079 199.99 283.953 200.021 283.84 200.079C283.727 200.137 283.63 200.221 283.555 200.324L281.679 202.888C281.605 202.991 281.507 203.075 281.394 203.133C281.281 203.191 281.156 203.222 281.029 203.222C280.902 203.222 280.776 203.191 280.663 203.133C280.55 203.075 280.453 202.991 280.378 202.888L275.866 196.712C275.792 196.609 275.694 196.525 275.581 196.467C275.468 196.409 275.343 196.378 275.216 196.378C275.089 196.378 274.963 196.409 274.85 196.467C274.737 196.525 274.64 196.609 274.566 196.712L270.137 202.763C270.048 202.882 269.994 203.025 269.981 203.173C269.968 203.322 269.997 203.471 270.065 203.604C270.132 203.737 270.235 203.849 270.363 203.926C270.491 204.004 270.637 204.044 270.786 204.042H285.984C286.133 204.044 286.28 204.004 286.408 203.926C286.535 203.849 286.639 203.737 286.706 203.604C286.774 203.471 286.803 203.322 286.79 203.173C286.777 203.025 286.723 202.882 286.633 202.763" fill="#D7D7D7"/>
<path d="M282.407 190.782C282.983 190.782 283.546 190.953 284.025 191.273C284.504 191.593 284.878 192.048 285.098 192.58C285.319 193.113 285.376 193.698 285.264 194.263C285.152 194.828 284.874 195.347 284.467 195.755C284.059 196.162 283.54 196.44 282.975 196.552C282.41 196.664 281.825 196.607 281.292 196.386C280.76 196.166 280.305 195.792 279.985 195.313C279.665 194.834 279.494 194.271 279.494 193.695C279.494 192.923 279.801 192.182 280.347 191.635C280.894 191.089 281.635 190.782 282.407 190.782Z" fill="#D7D7D7"/>
<path d="M231.227 178.361H157.294V204.04H231.227V178.361Z" fill="#EFEFEF"/>
<path d="M202.508 202.762L200.723 200.324C200.649 200.221 200.552 200.137 200.439 200.079C200.325 200.021 200.2 199.99 200.073 199.99C199.946 199.99 199.821 200.021 199.708 200.079C199.595 200.137 199.497 200.221 199.423 200.324L197.546 202.888C197.472 202.991 197.375 203.075 197.262 203.133C197.148 203.191 197.023 203.222 196.896 203.222C196.769 203.222 196.644 203.191 196.531 203.133C196.418 203.075 196.32 202.991 196.246 202.888L191.724 196.709C191.65 196.606 191.553 196.522 191.44 196.464C191.327 196.406 191.201 196.375 191.074 196.375C190.947 196.375 190.822 196.406 190.709 196.464C190.596 196.522 190.498 196.606 190.424 196.709L185.996 202.761C185.906 202.88 185.852 203.023 185.839 203.171C185.826 203.32 185.855 203.469 185.923 203.602C185.99 203.735 186.094 203.847 186.221 203.924C186.349 204.002 186.496 204.042 186.645 204.04H201.85C201.999 204.042 202.146 204.002 202.273 203.924C202.401 203.847 202.504 203.735 202.572 203.602C202.639 203.469 202.668 203.32 202.655 203.171C202.642 203.023 202.588 202.88 202.499 202.761" fill="#D7D7D7"/>
<path d="M198.277 190.782C198.853 190.782 199.416 190.953 199.895 191.273C200.374 191.593 200.747 192.048 200.968 192.58C201.188 193.113 201.246 193.698 201.134 194.263C201.021 194.828 200.744 195.347 200.336 195.755C199.929 196.162 199.41 196.44 198.845 196.552C198.28 196.664 197.694 196.607 197.162 196.386C196.63 196.166 196.175 195.792 195.855 195.313C195.534 194.834 195.364 194.271 195.364 193.695C195.364 192.923 195.671 192.182 196.217 191.635C196.763 191.089 197.504 190.782 198.277 190.782Z" fill="#D7D7D7"/>
<path d="M380.894 202.53H7.54638C1.54449 202.53 0.514164 205.009 1.16537 208.423C1.59551 210.666 1.64152 217.025 13.8414 217.025H374.599C386.803 217.025 386.846 210.67 387.275 208.423C387.928 205.008 386.898 202.53 380.894 202.53Z" fill="white"/>
<path d="M374.598 218.02H13.8414C1.67753 218.02 0.693219 211.79 0.273087 209.13C0.243077 208.94 0.215069 208.765 0.186059 208.612C-0.228071 206.448 0.0460152 204.824 1.02132 203.644C2.19469 202.225 4.32937 201.535 7.54538 201.535H380.893C384.109 201.535 386.244 202.225 387.418 203.644C388.394 204.824 388.667 206.445 388.254 208.612C388.223 208.765 388.196 208.94 388.166 209.129C387.745 211.79 386.766 218.02 374.597 218.02M7.54638 203.527C4.99758 203.527 3.31905 203.993 2.55881 204.914C1.97863 205.614 1.84658 206.671 2.14568 208.237C2.17769 208.408 2.2087 208.605 2.24571 208.819C2.64584 211.338 3.38307 216.021 13.8434 216.021H374.598C385.06 216.021 385.802 211.333 386.202 208.819C386.236 208.605 386.267 208.409 386.302 208.238C386.602 206.672 386.469 205.618 385.888 204.915C385.127 203.994 383.449 203.528 380.9 203.528L7.54638 203.527Z" fill="#D7D7D7"/>
<path d="M194.221 202.53H151.02C151.707 206.772 156.154 209.957 161.423 209.957H227.024C232.292 209.957 236.739 206.772 237.427 202.53H194.221Z" fill="white"/>
<path d="M227.025 210.955H161.424C155.693 210.955 150.799 207.401 150.034 202.69L149.848 201.534H238.599L238.412 202.69C237.65 207.401 232.754 210.955 227.026 210.955M152.308 203.527C153.474 206.694 157.165 208.961 161.424 208.961H227.025C231.283 208.961 234.972 206.695 236.138 203.527H152.308Z" fill="#D7D7D7"/>
<path d="M194.252 4.58042C194.529 4.58042 194.8 4.66256 195.03 4.81644C195.261 4.97032 195.44 5.18904 195.546 5.44494C195.652 5.70084 195.68 5.98242 195.626 6.25408C195.572 6.52574 195.438 6.77527 195.243 6.97113C195.047 7.16698 194.797 7.30036 194.526 7.3544C194.254 7.40844 193.972 7.3807 193.716 7.27471C193.46 7.16871 193.242 6.98921 193.088 6.75891C192.934 6.52861 192.852 6.25785 192.852 5.98087C192.852 5.60945 192.999 5.25324 193.262 4.9906C193.525 4.72797 193.881 4.58042 194.252 4.58042Z" fill="#D7D7D7"/>
<path d="M49.0385 203.531H48.0382V20.5735C48.0419 17.7591 49.1622 15.0611 51.1531 13.0718C53.1441 11.0825 55.8431 9.96449 58.6575 9.96317H329.853C332.666 9.96714 335.362 11.0863 337.351 13.0754C339.339 15.0644 340.458 17.7609 340.461 20.5735V203.531H49.0385ZM58.6575 11.9568C56.3722 11.9584 54.1808 12.8665 52.5642 14.482C50.9477 16.0974 50.038 18.2882 50.0348 20.5735V201.531H338.467V20.5735C338.464 18.2889 337.556 16.0984 335.94 14.4829C334.325 12.8673 332.135 11.9584 329.85 11.9558L58.6575 11.9568Z" fill="#D7D7D7"/>
<path d="M317.385 60.167H381.041C384.213 60.1683 387.255 61.4294 389.498 63.6729C391.74 65.9164 393 68.9586 393 72.1308V214.151C393 217.324 391.74 220.367 389.496 222.61C387.252 224.854 384.209 226.114 381.036 226.114H317.385C314.212 226.114 311.169 224.854 308.925 222.61C306.682 220.367 305.421 217.324 305.421 214.151V72.1308C305.421 68.9578 306.682 65.9147 308.925 63.6711C311.169 61.4275 314.212 60.167 317.385 60.167Z" fill="white"/>
<path d="M381.041 226.114H317.385C314.213 226.111 311.172 224.849 308.929 222.606C306.686 220.364 305.425 217.323 305.421 214.151V72.1308C305.425 68.9588 306.686 65.9178 308.929 63.6749C311.172 61.432 314.213 60.1704 317.385 60.167H381.041C384.212 60.1718 387.252 61.4339 389.494 63.6767C391.736 65.9194 392.997 68.9597 393 72.1308V214.151C392.997 217.323 391.735 220.364 389.492 222.606C387.249 224.849 384.208 226.111 381.036 226.114M317.38 62.1626C314.737 62.1655 312.203 63.2169 310.333 65.086C308.464 66.9552 307.413 69.4894 307.41 72.1328V214.151C307.413 216.794 308.464 219.328 310.333 221.197C312.203 223.066 314.737 224.118 317.38 224.121H381.036C383.68 224.118 386.214 223.066 388.083 221.197C389.952 219.328 391.003 216.794 391.006 214.151V72.1308C391.003 69.4874 389.952 66.9532 388.083 65.084C386.214 63.2149 383.68 62.1635 381.036 62.1606L317.38 62.1626Z" fill="#D7D7D7"/>
<path d="M321.232 76.7672C321.677 76.7666 322.112 76.898 322.483 77.1447C322.853 77.3914 323.142 77.7424 323.313 78.1532C323.483 78.5641 323.529 79.0163 323.442 79.4529C323.356 79.8894 323.142 80.2905 322.828 80.6056C322.514 80.9206 322.113 81.1354 321.677 81.2228C321.241 81.3102 320.789 81.2662 320.377 81.0965C319.966 80.9268 319.614 80.6389 319.366 80.2693C319.119 79.8996 318.986 79.4649 318.986 79.0199C318.985 78.4233 319.221 77.851 319.643 77.4285C320.064 77.0061 320.636 76.7683 321.232 76.7672Z" fill="#D7D7D7"/>
<path d="M327.731 76.7672C328.176 76.7672 328.611 76.8991 328.981 77.1463C329.351 77.3936 329.64 77.7449 329.81 78.156C329.98 78.5671 330.025 79.0194 329.938 79.4558C329.851 79.8922 329.637 80.2931 329.322 80.6077C329.008 80.9223 328.607 81.1366 328.17 81.2234C327.734 81.3102 327.282 81.2656 326.87 81.0954C326.459 80.9251 326.108 80.6367 325.861 80.2668C325.614 79.8968 325.482 79.4619 325.482 79.0169C325.482 78.4203 325.719 77.848 326.141 77.4261C326.563 77.0042 327.135 76.7672 327.731 76.7672Z" fill="#D7D7D7"/>
<path d="M334.234 76.7672C334.679 76.7672 335.114 76.8991 335.484 77.1463C335.854 77.3936 336.143 77.7449 336.313 78.156C336.483 78.5671 336.528 79.0194 336.441 79.4558C336.354 79.8922 336.14 80.2931 335.825 80.6077C335.511 80.9223 335.11 81.1366 334.673 81.2234C334.237 81.3102 333.785 81.2656 333.374 81.0954C332.962 80.9251 332.611 80.6367 332.364 80.2668C332.117 79.8968 331.985 79.4619 331.985 79.0169C331.985 78.7215 332.043 78.4289 332.156 78.156C332.269 77.883 332.435 77.635 332.644 77.4261C332.853 77.2172 333.101 77.0515 333.374 76.9385C333.646 76.8254 333.939 76.7672 334.234 76.7672Z" fill="#D7D7D7"/>
<path d="M369.369 135.83H329.038V139.546H369.369V135.83Z" fill="#D7D7D7"/>
<path d="M386.005 88.896H312.402V169.834H386.005V88.896Z" fill="#EFEFEF"/>
<path d="M328.538 176.465H369.868C370.133 176.465 370.387 176.57 370.575 176.758C370.763 176.945 370.868 177.2 370.868 177.465V179.187C370.868 179.452 370.763 179.706 370.575 179.894C370.387 180.081 370.133 180.187 369.868 180.187H328.538C328.272 180.187 328.018 180.081 327.83 179.894C327.643 179.706 327.537 179.452 327.537 179.187V177.465C327.537 177.2 327.643 176.945 327.83 176.758C328.018 176.57 328.272 176.465 328.538 176.465Z" fill="#D7D7D7"/>
<path d="M328.54 142.451H369.869C370.134 142.451 370.388 142.556 370.576 142.744C370.764 142.932 370.869 143.186 370.869 143.451V145.169C370.869 145.434 370.764 145.689 370.576 145.876C370.388 146.064 370.134 146.169 369.869 146.169H328.54C328.274 146.169 328.02 146.064 327.832 145.876C327.645 145.689 327.539 145.434 327.539 145.169V143.448C327.539 143.183 327.645 142.929 327.832 142.741C328.02 142.553 328.274 142.448 328.54 142.448" fill="#D7D7D7"/>
<path d="M328.54 151.503H369.869C370.134 151.503 370.388 151.608 370.576 151.796C370.764 151.983 370.869 152.238 370.869 152.503V154.225C370.869 154.49 370.764 154.744 370.576 154.932C370.388 155.12 370.134 155.225 369.869 155.225H328.54C328.274 155.225 328.02 155.12 327.832 154.932C327.645 154.744 327.539 154.49 327.539 154.225V152.5C327.539 152.235 327.645 151.98 327.832 151.793C328.02 151.605 328.274 151.5 328.54 151.5" fill="#D7D7D7"/>
<path d="M377.738 184.376H320.668V208.588H377.738V184.376Z" fill="#EFEFEF"/>
<path d="M381.02 217.816H317.386C315.8 217.814 314.28 217.183 313.158 216.062C312.037 214.94 311.406 213.42 311.404 211.834V73.5252C311.406 71.9392 312.037 70.4186 313.158 69.2971C314.28 68.1756 315.8 67.5449 317.386 67.5433H381.02C382.606 67.5449 384.127 68.1756 385.248 69.2971C386.37 70.4186 387.001 71.9392 387.002 73.5252V211.834C387.001 213.42 386.37 214.94 385.248 216.062C384.127 217.183 382.606 217.814 381.02 217.816ZM317.386 69.5369C316.329 69.538 315.315 69.9585 314.567 70.7062C313.819 71.4539 313.399 72.4677 313.398 73.5252V211.834C313.399 212.891 313.819 213.905 314.567 214.653C315.315 215.401 316.329 215.821 317.386 215.822H381.02C382.078 215.821 383.092 215.401 383.839 214.653C384.587 213.905 385.008 212.891 385.008 211.834V73.5252C385.007 72.4677 384.587 71.4539 383.839 70.7062C383.091 69.9585 382.078 69.538 381.02 69.5369H317.386Z" fill="#D7D7D7"/>
<path d="M365.527 126.908L356.414 114.453C356.347 114.361 356.259 114.286 356.157 114.235C356.056 114.183 355.943 114.156 355.829 114.156C355.715 114.156 355.603 114.183 355.501 114.235C355.399 114.286 355.311 114.361 355.244 114.453L352.88 117.683C352.813 117.775 352.725 117.85 352.623 117.901C352.521 117.953 352.409 117.98 352.295 117.98C352.181 117.98 352.068 117.953 351.966 117.901C351.865 117.85 351.776 117.775 351.709 117.683L346.398 110.428C346.331 110.336 346.243 110.261 346.141 110.21C346.039 110.158 345.927 110.132 345.813 110.132C345.699 110.132 345.587 110.158 345.485 110.21C345.384 110.261 345.295 110.336 345.228 110.428L333.167 126.908C333.088 127.016 333.041 127.144 333.031 127.278C333.02 127.411 333.046 127.545 333.107 127.664C333.168 127.784 333.26 127.884 333.374 127.954C333.488 128.024 333.619 128.061 333.753 128.061H364.941C365.075 128.062 365.207 128.025 365.321 127.955C365.435 127.885 365.528 127.784 365.588 127.665C365.649 127.545 365.676 127.411 365.665 127.278C365.654 127.144 365.606 127.016 365.527 126.908Z" fill="#D7D7D7"/>
<path d="M353.822 104.01C354.464 104.01 355.091 104.2 355.625 104.556C356.159 104.913 356.575 105.42 356.82 106.013C357.066 106.606 357.131 107.258 357.005 107.888C356.88 108.517 356.571 109.096 356.117 109.549C355.663 110.003 355.085 110.312 354.455 110.438C353.826 110.563 353.173 110.498 352.58 110.253C351.987 110.007 351.481 109.591 351.124 109.057C350.768 108.523 350.577 107.896 350.578 107.254C350.578 106.393 350.919 105.568 351.528 104.96C352.136 104.352 352.961 104.01 353.822 104.01Z" fill="#D7D7D7"/>
<path d="M357 202.366L352.689 196.475C352.658 196.431 352.616 196.396 352.568 196.371C352.52 196.347 352.467 196.334 352.413 196.334C352.359 196.334 352.306 196.347 352.258 196.371C352.209 196.396 352.168 196.431 352.136 196.475L351.018 198.003C350.986 198.047 350.944 198.082 350.896 198.106C350.848 198.13 350.795 198.143 350.741 198.143C350.687 198.143 350.634 198.13 350.586 198.106C350.538 198.082 350.497 198.047 350.465 198.003L347.952 194.572C347.92 194.529 347.878 194.493 347.83 194.469C347.782 194.444 347.729 194.432 347.675 194.432C347.621 194.432 347.568 194.444 347.52 194.469C347.472 194.493 347.43 194.529 347.399 194.572L341.697 202.367C341.66 202.418 341.637 202.478 341.632 202.542C341.627 202.605 341.64 202.668 341.668 202.724C341.697 202.781 341.741 202.828 341.795 202.861C341.849 202.894 341.911 202.912 341.974 202.912H356.726C356.789 202.912 356.851 202.894 356.905 202.861C356.959 202.828 357.003 202.781 357.031 202.724C357.06 202.668 357.072 202.605 357.067 202.542C357.062 202.478 357.04 202.418 357.003 202.367" fill="#D7D7D7"/>
<path d="M351.464 191.536C351.767 191.536 352.064 191.626 352.316 191.795C352.569 191.964 352.765 192.203 352.882 192.484C352.998 192.764 353.028 193.073 352.969 193.37C352.91 193.668 352.764 193.941 352.549 194.156C352.334 194.371 352.061 194.517 351.763 194.576C351.466 194.635 351.157 194.605 350.877 194.489C350.596 194.372 350.357 194.176 350.188 193.923C350.019 193.671 349.929 193.374 349.929 193.071C349.929 192.664 350.091 192.274 350.379 191.986C350.667 191.698 351.057 191.536 351.464 191.536Z" fill="#D7D7D7"/>
</g>
</svg>
