<svg width="15" height="17" viewBox="0 0 15 17" fill="none" xmlns="http://www.w3.org/2000/svg">
<path d="M12.3758 11.9786C10.337 10.959 9.77827 10.7425 9.77827 10.1127C9.77827 9.48295 9.77827 9.37965 9.77827 9.37965C9.77827 9.37965 9.76829 8.96648 10.2439 8.26343C10.7195 7.56037 10.9024 6.87397 10.9024 6.87397C11.0588 6.87397 11.255 6.46413 11.255 5.82438C11.255 5.18463 11.2982 4.90141 10.9989 4.61819V2.59232C10.9989 2.59232 10.8559 1.21619 9.93792 0.579773C9.51219 0.29655 8.70732 0 7.50333 0C6.29934 0 5.49446 0.29655 5.06874 0.579773C4.14745 1.21619 4.00776 2.59232 4.00776 2.59232V4.62152C3.71175 4.90474 3.75166 5.18797 3.75166 5.82771C3.75166 6.46746 3.95122 6.8773 4.10421 6.8773C4.10421 6.8773 4.28381 7.5637 4.76275 8.26676C5.24168 8.96982 5.22838 9.38299 5.22838 9.38299C5.22838 9.38299 5.22838 9.48961 5.22838 10.116C5.22838 10.7425 4.6663 10.959 2.63082 11.982C0.592018 13.0016 0 13.5414 0 14.2777C0 16.7168 5.26497 17 7.5 17C9.73503 17 15 16.7168 15 14.2777C15 13.5414 14.4047 13.0016 12.3692 11.982L12.3758 11.9786Z" fill="#464E54"/>
</svg>
